HIERARCHY
ROOT Hips
{
  OFFSET 45.814 100.09 10.1648
  CHANNELS 6 Xposition Yposition Zposition Zrotation Xrotation Yrotation
  JOINT spine
  {
    OFFSET 0 8.81704 0.507024
    CHANNELS 3 Zrotation Xrotation Yrotation
    JOINT spine1
    {
      OFFSET 0 10.7766 0
      CHANNELS 3 Zrotation Xrotation Yrotation
      JOINT spine2
      {
        OFFSET 0 10.3259 0
        CHANNELS 3 Zrotation Xrotation Yrotation
        JOINT Neck
        {
          OFFSET 0 26.511 1.26395
          CHANNELS 3 Zrotation Xrotation Yrotation
          JOINT Head
          {
            OFFSET 0 8.00966 0
            CHANNELS 3 Zrotation Xrotation Yrotation
            End Site
            {
              OFFSET 0 19.3879 -6.39386
            }
          }
        }
        JOINT RightShoulder
        {
          OFFSET -4.34795 11.1512 -0.605422
          CHANNELS 3 Zrotation Xrotation Yrotation
          JOINT RightArm
          {
            OFFSET 0 14.6258 0
            CHANNELS 3 Zrotation Xrotation Yrotation
            JOINT RightArmRoll
            {
              OFFSET 0 7.38339 0
              CHANNELS 3 Zrotation Xrotation Yrotation
              JOINT RightForeArm
              {
                OFFSET 0 21.5052 0
                CHANNELS 3 Zrotation Xrotation Yrotation
                JOINT RightForeArmRoll
                {
                  OFFSET 0 8.28532 0
                  CHANNELS 3 Zrotation Xrotation Yrotation
                  JOINT RightHand
                  {
                    OFFSET 0 16.6268 0
                    CHANNELS 3 Zrotation Xrotation Yrotation
                    End Site
                    {
                      OFFSET 0 0 0
                    }
                  }
                }
              }
            }
          }
        }
        JOINT LeftShoulder
        {
          OFFSET 4.34795 11.1512 -0.605422
          CHANNELS 3 Zrotation Xrotation Yrotation
          JOINT LeftArm
          {
            OFFSET 0 14.6258 0
            CHANNELS 3 Zrotation Xrotation Yrotation
            JOINT LeftArmRoll
            {
              OFFSET 0 7.3834 0
              CHANNELS 3 Zrotation Xrotation Yrotation
              JOINT LeftForeArm
              {
                OFFSET 0 21.5052 0
                CHANNELS 3 Zrotation Xrotation Yrotation
                JOINT LeftForeArmRoll
                {
                  OFFSET 0 8.28532 0
                  CHANNELS 3 Zrotation Xrotation Yrotation
                  JOINT LeftHand
                  {
                    OFFSET 0 16.6268 0
                    CHANNELS 3 Zrotation Xrotation Yrotation
                    End Site
                    {
                      OFFSET 0 0 0
                    }
                  }
                }
              }
            }
          }
        }
      }
    }
  }
  JOINT RightUpLeg
  {
    OFFSET -7.8151 -1.43309 -1.20217
    CHANNELS 3 Zrotation Xrotation Yrotation
    JOINT RightUpLegRoll
    {
      OFFSET 0 19.4959 0
      CHANNELS 3 Zrotation Xrotation Yrotation
      JOINT RightLeg
      {
        OFFSET 0 -24.1427 0
        CHANNELS 3 Zrotation Xrotation Yrotation
        JOINT RightLegRoll
        {
          OFFSET 0 24.2217 0
          CHANNELS 3 Zrotation Xrotation Yrotation
          JOINT RightFoot
          {
            OFFSET 0 20.1605 0
            CHANNELS 3 Zrotation Xrotation Yrotation
            JOINT RightToeBase
            {
              OFFSET 0 16.8532 0
              CHANNELS 3 Zrotation Xrotation Yrotation
              End Site
              {
                OFFSET 0.00714343 8.16186 -0.940781
              }
            }
          }
        }
      }
    }
  }
  JOINT LeftUpLeg
  {
    OFFSET 7.8151 -1.43309 -1.20217
    CHANNELS 3 Zrotation Xrotation Yrotation
    JOINT LeftUpLegRoll
    {
      OFFSET 0 19.496 0
      CHANNELS 3 Zrotation Xrotation Yrotation
      JOINT LeftLeg
      {
        OFFSET 0 24.1426 0
        CHANNELS 3 Zrotation Xrotation Yrotation
        JOINT LeftLegRoll
        {
          OFFSET 0 24.4456 0
          CHANNELS 3 Zrotation Xrotation Yrotation
          JOINT LeftFoot
          {
            OFFSET 0 19.9366 0
            CHANNELS 3 Zrotation Xrotation Yrotation
            JOINT LeftToeBase
            {
              OFFSET 0 16.8532 0
              CHANNELS 3 Zrotation Xrotation Yrotation
              End Site
              {
                OFFSET -0.0320138 8.16186 -0.940781
              }
            }
          }
        }
      }
    }
  }
}
MOTION
Frames: 10
Frame Time: 0.00208333
62.2653 99.6033 16.6123 -1.05529 -0.473439 75.3979 -0.651333 -2.15212 0.811702 -1.27665 -0.310913 1.68288 -1.29711 1.33362 1.70458 -47.5649 2.92289 0.552987 29.4001 1.67027 -4.34499 29.8448 10.0443 14.4033 147.838 49.5218 -17.6966 4.05581e-006 -1.03744e-007 6.3329e-006 4.18536 17.1927 -1.81031 -1.28401e-005 -7.39048e-006 -3.00594 8.02889 -4.9514 0.697582 -72.4321 -17.5278 9.85546 -94.7349 6.22993 -11.537 -6.05746e-006 -1.16678e-005 4.52069e-006 -12.032 13.8424 2.13323 1.33726e-005 9.69706e-006 2.99999 -8.02982 -4.95092 -0.697517 176.846 -6.16384 4.25808 180 7.01396e-015 178.395 176.146 20.558 179.939 1.81564e-007 -4.47947e-006 0.735728 -19.4322 70.3224 21.6013 9.42052 45.9433 -3.27261 178.801 14.4779 4.95447 4.54188e-006 -4.6773e-006 -1.13951 -2.53975 -19.0155 0.160304 3.3947e-006 -4.48944e-006 -0.504338 26.1519 73.0622 -25.3569 -8.1365 25.2327 3.48774 
62.2997 99.6136 16.6115 -1.08132 -0.487828 75.4931 -0.652283 -2.14738 0.810662 -1.27911 -0.30143 1.68097 -1.29955 1.3431 1.70271 -47.5238 2.90504 0.512648 29.4208 1.66571 -4.36709 29.8405 10.0118 14.3738 147.935 49.176 -17.7077 4.05581e-006 -1.03744e-007 6.3329e-006 4.31986 17.2771 -1.83991 -1.28401e-005 -7.39048e-006 -3.00594 8.02889 -4.9514 0.697582 -72.4083 -17.5371 9.86181 -94.7408 6.19078 -11.5819 -6.05746e-006 -1.16678e-005 4.52069e-006 -12.0112 13.7658 2.1221 1.33726e-005 9.69706e-006 2.99999 -8.02982 -4.95092 -0.697517 176.87 -6.15724 4.2565 180 7.01395e-015 178.395 176.136 20.56 179.937 1.81564e-007 -4.47947e-006 0.732438 -19.385 70.269 21.5483 9.4348 46.045 -3.29353 178.81 14.4965 4.95794 4.54188e-006 -4.6773e-006 -1.13762 -2.52731 -19.0177 0.16432 3.3947e-006 -4.48944e-006 -0.503467 26.1072 73.0436 -25.3292 -8.1365 25.2327 3.48774 
62.3207 99.6159 16.6084 -1.10898 -0.501802 75.5858 -0.653124 -2.14332 0.809728 -1.28129 -0.293324 1.6793 -1.30173 1.35121 1.70108 -47.4836 2.89173 0.474915 29.4425 1.65965 -4.38819 29.8442 9.98338 14.3453 148.029 48.8392 -17.712 4.05581e-006 -1.03744e-007 6.3329e-006 4.4466 17.3471 -1.86696 -1.28401e-005 -7.39048e-006 -3.00594 8.02889 -4.9514 0.697582 -72.3863 -17.5447 9.86717 -94.7441 6.14954 -11.6253 -6.05746e-006 -1.16678e-005 4.52069e-006 -11.9929 13.6893 2.11112 1.33726e-005 9.69706e-006 2.99999 -8.02982 -4.95092 -0.697517 176.893 -6.14678 4.2538 180 7.01395e-015 178.394 176.128 20.5619 179.936 1.81564e-007 -4.47947e-006 0.729327 -19.3415 70.2192 21.4992 9.44827 46.1388 -3.31342 178.819 14.5174 4.96005 4.54188e-006 -4.6773e-006 -1.13572 -2.51623 -19.0206 0.168003 3.3947e-006 -4.48944e-006 -0.502534 26.0633 73.0254 -25.3017 -8.1365 25.2327 3.48774 
62.35 99.6115 16.6061 -1.13879 -0.515352 75.6756 -0.65384 -2.14012 0.808942 -1.28315 -0.286933 1.67794 -1.30358 1.3576 1.69975 -47.4447 2.88406 0.440175 29.4656 1.65131 -4.4082 29.8595 9.9597 14.3172 148.119 48.5131 -17.7085 4.05581e-006 -1.03744e-007 6.3329e-006 4.56432 17.3995 -1.891 -1.28401e-005 -7.39048e-006 -3.00594 8.02889 -4.9514 0.697582 -72.3663 -17.5501 9.8713 -94.7446 6.10585 -11.6674 -6.05746e-006 -1.16678e-005 4.52069e-006 -11.977 13.6127 2.10025 1.33726e-005 9.69706e-006 2.99999 -8.02982 -4.95092 -0.697517 176.916 -6.13159 4.24968 180 7.01395e-015 178.394 176.12 20.5635 179.935 1.81564e-007 -4.47947e-006 0.726415 -19.3019 70.1738 21.4546 9.46088 46.2237 -3.33233 178.83 14.5416 4.96045 4.54188e-006 -4.6773e-006 -1.1338 -2.50676 -19.0242 0.171299 3.3947e-006 -4.48944e-006 -0.501529 26.0203 73.0074 -25.2745 -8.1365 25.2327 3.48774 
62.3728 99.6158 16.6037 -1.17126 -0.52847 75.7623 -0.65441 -2.13795 0.808344 -1.28464 -0.282598 1.67697 -1.30505 1.36193 1.69881 -47.4074 2.88317 0.408817 29.4907 1.63989 -4.42703 29.8901 9.94163 14.289 148.204 48.1992 -17.6958 4.05581e-006 -1.03744e-007 6.3329e-006 4.67174 17.4315 -1.91159 -1.28401e-005 -7.39048e-006 -3.00594 8.02889 -4.9514 0.697582 -72.3486 -17.5529 9.87401 -94.7419 6.05936 -11.7086 -6.05746e-006 -1.16678e-005 4.52069e-006 -11.9636 13.5357 2.08943 1.33726e-005 9.69706e-006 2.99999 -8.02982 -4.95092 -0.697517 176.939 -6.11081 4.24381 180 7.01395e-015 178.394 176.113 20.5649 179.934 1.81564e-007 -4.47947e-006 0.723725 -19.2667 70.1331 21.4149 9.47256 46.2989 -3.35028 178.842 14.5697 4.95882 4.54188e-006 -4.6773e-006 -1.13183 -2.49912 -19.029 0.174157 3.3947e-006 -4.48944e-006 -0.500445 25.9782 72.9898 -25.2475 -8.1365 25.2327 3.48774 
62.4043 99.6213 16.5973 -1.20693 -0.541148 75.8457 -0.654819 -2.13698 0.807974 -1.28569 -0.280656 1.67649 -1.3061 1.36388 1.69835 -47.3721 2.89016 0.381229 29.5183 1.62461 -4.4446 29.9397 9.93 14.2601 148.283 47.8993 -17.6726 4.05581e-006 -1.03744e-007 6.3329e-006 4.76761 17.4397 -1.92828 -1.28401e-005 -7.39048e-006 -3.00594 8.02889 -4.9514 0.697582 -72.3334 -17.5526 9.87506 -94.7357 6.00973 -11.7492 -6.05746e-006 -1.16678e-005 4.52069e-006 -11.9524 13.4582 2.07863 1.33726e-005 9.69706e-006 2.99999 -8.02982 -4.95092 -0.697517 176.963 -6.08358 4.23589 180 7.01396e-015 178.395 176.107 20.5661 179.933 1.81564e-007 -4.47947e-006 0.721276 -19.2363 70.0977 21.3805 9.48326 46.3633 -3.36731 178.856 14.6026 4.95484 4.54188e-006 -4.6773e-006 -1.1298 -2.49355 -19.0351 0.176524 3.3947e-006 -4.48944e-006 -0.499271 25.937 72.9725 -25.2206 -8.1365 25.2327 3.48774 
62.4259 99.6229 16.5961 -1.24652 -0.553572 75.9255 -0.655076 -2.13732 0.807823 -1.28634 -0.281347 1.6765 -1.30675 1.36319 1.69837 -47.3381 2.90469 0.357603 29.5479 1.60593 -4.46059 30.0042 9.92562 14.2328 148.358 47.6136 -17.6405 4.05581e-006 -1.03744e-007 6.3329e-006 4.85154 17.421 -1.94064 -1.28401e-005 -7.39048e-006 -3.00594 8.02889 -4.9514 0.697582 -72.3205 -17.5492 9.87443 -94.7262 5.95596 -11.785 -6.05746e-006 -1.16678e-005 4.52069e-006 -11.947 13.3824 2.0683 1.33726e-005 9.69706e-006 2.99999 -8.02982 -4.95092 -0.697517 176.987 -6.04849 4.22541 180 7.01396e-015 178.395 176.103 20.5668 179.933 1.81564e-007 -4.47947e-006 0.719103 -19.2115 70.0686 21.3523 9.49267 46.4146 -3.38306 178.873 14.641 4.94784 4.54188e-006 -4.6773e-006 -1.12769 -2.49051 -19.0424 0.178303 3.3947e-006 -4.48944e-006 -0.497962 25.8967 72.9554 -25.1938 -8.1365 25.2327 3.48774 
62.449 99.6183 16.5962 -1.28995 -0.565904 76.0017 -0.655213 -2.13887 0.807839 -1.28669 -0.284457 1.67692 -1.30711 1.36008 1.69879 -47.3045 2.9252 0.337633 29.5787 1.5851 -4.47484 30.0767 9.92817 14.2096 148.434 47.3402 -17.602 4.05581e-006 -1.03744e-007 6.3329e-006 4.92472 17.3763 -1.94886 -1.28401e-005 -7.39048e-006 -3.00594 8.02889 -4.9514 0.697582 -72.3098 -17.5432 9.87235 -94.7138 5.89775 -11.8125 -6.05746e-006 -1.16678e-005 4.52069e-006 -11.9498 13.3104 2.05884 1.33726e-005 9.69706e-006 2.99999 -8.02982 -4.95092 -0.697517 177.013 -6.0055 4.21238 180 7.01396e-015 178.396 176.1 20.5668 179.932 1.81564e-007 -4.47947e-006 0.717208 -19.1924 70.046 21.3305 9.50059 46.4517 -3.3972 178.892 14.6849 4.93771 4.54188e-006 -4.6773e-006 -1.1255 -2.4901 -19.0508 0.179484 3.3947e-006 -4.48944e-006 -0.496491 25.8574 72.9385 -25.167 -8.1365 25.2327 3.48774 
62.4404 99.6206 16.6057 -1.33657 -0.578107 76.0747 -0.655238 -2.14146 0.807993 -1.28676 -0.289642 1.67768 -1.30719 1.35489 1.69955 -47.2712 2.95101 0.320955 29.6104 1.56251 -4.48756 30.1559 9.93671 14.1899 148.508 47.0779 -17.5574 4.05581e-006 -1.03744e-007 6.3329e-006 4.98817 17.3093 -1.95344 -1.28401e-005 -7.39048e-006 -3.00594 8.02889 -4.9514 0.697582 -72.3012 -17.5349 9.86899 -94.6985 5.83574 -11.8333 -6.05746e-006 -1.16678e-005 4.52069e-006 -11.9594 13.2414 2.05007 1.33726e-005 9.69706e-006 2.99999 -8.02982 -4.95092 -0.697517 177.038 -5.95581 4.19722 180 7.01396e-015 178.397 176.099 20.5661 179.932 1.81564e-007 -4.47947e-006 0.715561 -19.1785 70.0291 21.3142 9.50715 46.4765 -3.40982 178.914 14.7333 4.92495 4.54188e-006 -4.6773e-006 -1.12325 -2.49196 -19.06 0.180143 3.3947e-006 -4.48944e-006 -0.494884 25.819 72.9216 -25.1404 -8.1365 25.2327 3.48774 
62.4723 99.6239 16.6031 -1.3857 -0.590142 76.1447 -0.655159 -2.14492 0.808261 -1.28658 -0.296555 1.67871 -1.30701 1.34798 1.70058 -47.2382 2.98144 0.307208 29.6428 1.53854 -4.49894 30.2408 9.9503 14.1731 148.582 46.8252 -17.5073 4.05581e-006 -1.03744e-007 6.3329e-006 5.04296 17.2236 -1.95487 -1.28401e-005 -7.39048e-006 -3.00594 8.02889 -4.9514 0.697582 -72.2944 -17.5246 9.86452 -94.6807 5.77059 -11.8487 -6.05746e-006 -1.16678e-005 4.52069e-006 -11.9745 13.1745 2.04186 1.33726e-005 9.69706e-006 2.99999 -8.02982 -4.95092 -0.697517 177.063 -5.90061 4.18037 180 7.01397e-015 178.399 176.098 20.5649 179.932 1.81564e-007 -4.47947e-006 0.714133 -19.1689 70.0171 21.3027 9.51247 46.4907 -3.42101 178.937 14.7853 4.91007 4.54188e-006 -4.6773e-006 -1.12097 -2.49571 -19.0699 0.180358 3.3947e-006 -4.48944e-006 -0.493167 25.7814 72.9049 -25.114 -8.1365 25.2327 3.48774 
